<svg width="263" height="48" viewBox="0 0 263 48" fill="none" xmlns="http://www.w3.org/2000/svg">
<path d="M36.2425 15.32C36.925 14.6375 36.925 13.5 36.2425 12.8525L32.1475 8.75751C31.5 8.07501 30.3625 8.07501 29.68 8.75751L26.46 11.96L33.0225 18.5225M5.25 33.1875V39.75H11.8125L31.1675 20.3775L24.605 13.815L5.25 33.1875Z" fill="url(#paint0_linear_36_584)"/>
<path d="M59.0795 16.2727V9.90909H84.3636V16.2727H75.6136V39H67.8295V16.2727H59.0795ZM94.7969 39.3977C92.4295 39.3977 90.4029 38.929 88.7173 37.9915C87.0317 37.0445 85.7391 35.7282 84.8395 34.0426C83.9399 32.3475 83.4901 30.3826 83.4901 28.1477C83.4901 25.9129 83.9399 23.9527 84.8395 22.267C85.7391 20.572 87.0317 19.2557 88.7173 18.3182C90.4029 17.3712 92.4295 16.8977 94.7969 16.8977C97.1643 16.8977 99.1908 17.3712 100.876 18.3182C102.562 19.2557 103.855 20.572 104.754 22.267C105.654 23.9527 106.104 25.9129 106.104 28.1477C106.104 30.3826 105.654 32.3475 104.754 34.0426C103.855 35.7282 102.562 37.0445 100.876 37.9915C99.1908 38.929 97.1643 39.3977 94.7969 39.3977ZM94.8537 33.6023C95.5166 33.6023 96.0895 33.3797 96.5724 32.9347C97.0554 32.4896 97.4295 31.8551 97.6946 31.0312C97.9598 30.2074 98.0923 29.2273 98.0923 28.0909C98.0923 26.9451 97.9598 25.965 97.6946 25.1506C97.4295 24.3267 97.0554 23.6922 96.5724 23.2472C96.0895 22.8021 95.5166 22.5795 94.8537 22.5795C94.1529 22.5795 93.5516 22.8021 93.0497 23.2472C92.5478 23.6922 92.1643 24.3267 91.8991 25.1506C91.634 25.965 91.5014 26.9451 91.5014 28.0909C91.5014 29.2273 91.634 30.2074 91.8991 31.0312C92.1643 31.8551 92.5478 32.4896 93.0497 32.9347C93.5516 33.3797 94.1529 33.6023 94.8537 33.6023ZM123.604 24.4545V30.3636H109.967V24.4545H123.604ZM139.349 39H128.156V9.90909H139.236C142.228 9.90909 144.813 10.4915 146.991 11.6562C149.179 12.8116 150.865 14.4782 152.048 16.6562C153.241 18.8248 153.838 21.4242 153.838 24.4545C153.838 27.4848 153.246 30.089 152.062 32.267C150.879 34.4356 149.203 36.1023 147.034 37.267C144.866 38.4223 142.304 39 139.349 39ZM136.054 32.2955H139.065C140.505 32.2955 141.731 32.0634 142.744 31.5994C143.767 31.1354 144.544 30.3352 145.074 29.1989C145.614 28.0625 145.884 26.4811 145.884 24.4545C145.884 22.428 145.609 20.8466 145.06 19.7102C144.52 18.5739 143.724 17.7737 142.673 17.3097C141.632 16.8456 140.353 16.6136 138.838 16.6136H136.054V32.2955ZM168.117 39.3977C165.75 39.3977 163.723 38.929 162.038 37.9915C160.352 37.0445 159.059 35.7282 158.16 34.0426C157.26 32.3475 156.81 30.3826 156.81 28.1477C156.81 25.9129 157.26 23.9527 158.16 22.267C159.059 20.572 160.352 19.2557 162.038 18.3182C163.723 17.3712 165.75 16.8977 168.117 16.8977C170.485 16.8977 172.511 17.3712 174.197 18.3182C175.882 19.2557 177.175 20.572 178.075 22.267C178.974 23.9527 179.424 25.9129 179.424 28.1477C179.424 30.3826 178.974 32.3475 178.075 34.0426C177.175 35.7282 175.882 37.0445 174.197 37.9915C172.511 38.929 170.485 39.3977 168.117 39.3977ZM168.174 33.6023C168.837 33.6023 169.41 33.3797 169.893 32.9347C170.376 32.4896 170.75 31.8551 171.015 31.0312C171.28 30.2074 171.413 29.2273 171.413 28.0909C171.413 26.9451 171.28 25.965 171.015 25.1506C170.75 24.3267 170.376 23.6922 169.893 23.2472C169.41 22.8021 168.837 22.5795 168.174 22.5795C167.473 22.5795 166.872 22.8021 166.37 23.2472C165.868 23.6922 165.485 24.3267 165.219 25.1506C164.954 25.965 164.822 26.9451 164.822 28.0909C164.822 29.2273 164.954 30.2074 165.219 31.0312C165.485 31.8551 165.868 32.4896 166.37 32.9347C166.872 33.3797 167.473 33.6023 168.174 33.6023Z" fill="#2563EB"/>
<path d="M190.461 39V9.90909H198.359V32.6364H210.12V39H190.461ZM213.426 39V17.1818H221.267V39H213.426ZM217.347 14.9091C216.286 14.9091 215.377 14.5587 214.619 13.858C213.862 13.1572 213.483 12.3144 213.483 11.3295C213.483 10.3447 213.862 9.50189 214.619 8.80114C215.377 8.10038 216.286 7.75 217.347 7.75C218.417 7.75 219.326 8.10038 220.074 8.80114C220.831 9.50189 221.21 10.3447 221.21 11.3295C221.21 12.3144 220.831 13.1572 220.074 13.858C219.326 14.5587 218.417 14.9091 217.347 14.9091ZM245.205 24.2841H237.989C237.951 23.839 237.795 23.4555 237.521 23.1335C237.246 22.8116 236.891 22.5653 236.455 22.3949C236.029 22.215 235.556 22.125 235.035 22.125C234.362 22.125 233.785 22.2481 233.302 22.4943C232.819 22.7405 232.582 23.0909 232.592 23.5455C232.582 23.8674 232.719 24.1657 233.004 24.4403C233.297 24.715 233.861 24.928 234.694 25.0795L239.126 25.875C241.361 26.2822 243.022 26.9687 244.112 27.9347C245.21 28.8911 245.764 30.1742 245.773 31.7841C245.764 33.3371 245.3 34.6866 244.381 35.8324C243.472 36.9687 242.227 37.8494 240.646 38.4744C239.074 39.09 237.279 39.3977 235.262 39.3977C231.929 39.3977 229.32 38.7159 227.435 37.3523C225.56 35.9886 224.514 34.1894 224.296 31.9545H232.08C232.184 32.6458 232.525 33.1809 233.103 33.5597C233.69 33.929 234.429 34.1136 235.319 34.1136C236.039 34.1136 236.63 33.9905 237.094 33.7443C237.568 33.4981 237.809 33.1477 237.819 32.6932C237.809 32.2765 237.601 31.9451 237.194 31.6989C236.796 31.4527 236.171 31.2538 235.319 31.1023L231.455 30.4205C229.23 30.0322 227.563 29.2936 226.455 28.2045C225.347 27.1155 224.798 25.714 224.808 24C224.798 22.4848 225.196 21.2017 226.001 20.1506C226.815 19.09 227.975 18.285 229.481 17.7358C230.996 17.1771 232.79 16.8977 234.864 16.8977C238.018 16.8977 240.504 17.5511 242.322 18.858C244.149 20.1648 245.111 21.9735 245.205 24.2841ZM261.789 17.1818V22.8636H247.414V17.1818H261.789ZM250.198 11.9545H258.039V31.983C258.039 32.286 258.091 32.5417 258.195 32.75C258.299 32.9489 258.46 33.1004 258.678 33.2045C258.896 33.2992 259.175 33.3466 259.516 33.3466C259.753 33.3466 260.028 33.3182 260.34 33.2614C260.662 33.2045 260.899 33.1572 261.05 33.1193L262.187 38.6307C261.836 38.7348 261.335 38.8627 260.681 39.0142C260.037 39.1657 259.27 39.2652 258.38 39.3125C256.581 39.4072 255.07 39.2225 253.849 38.7585C252.627 38.285 251.709 37.5417 251.093 36.5284C250.478 35.5152 250.179 34.2462 250.198 32.7216V11.9545Z" fill="#7C3AED"/>
<defs>
<linearGradient id="paint0_linear_36_584" x1="21.0022" y1="8.24564" x2="21.0022" y2="39.75" gradientUnits="userSpaceOnUse">
<stop stop-color="#2563EB"/>
<stop offset="1" stop-color="#5B21B6"/>
</linearGradient>
</defs>
</svg>
